<svg width="0" height="0" class="hidden">
  <symbol viewBox="0 0 24 24" fill="none" xmlns="http://www.w3.org/2000/svg" id="vk">
    <path d="M21.4439 16.7569C20.6455 15.32 18.5889 13.5935 17.7398 12.8422C17.5074 12.6365 17.4826 12.2806 17.694 12.0531C19.3144 10.3119 20.6104 8.31123 21.0565 7.1023C21.2533 6.56826 20.8459 6.004 20.2719 6.004H18.6044C18.0548 6.004 17.7331 6.20127 17.5799 6.51538C16.2332 9.27491 15.078 10.4692 14.2694 11.1672C13.8167 11.5581 13.1107 11.2343 13.1107 10.6393C13.1107 9.49306 13.1107 8.01133 13.1107 6.96057C13.1107 6.45096 12.6939 6.03865 12.1799 6.03865L9.13379 6.004C8.75036 6.004 8.53132 6.43808 8.76147 6.74242L9.26441 7.4644C9.45368 7.71454 9.55587 8.01888 9.55587 8.33122L9.55321 11.5826C9.55321 12.1482 8.86766 12.4245 8.46068 12.0282C7.08381 10.6873 5.88909 7.94913 5.45901 6.63979C5.33461 6.2608 4.97962 6.00489 4.57709 6.004L2.93452 6C2.31828 6 1.86777 6.58425 2.03527 7.1725C3.5361 12.4405 6.61552 17.4522 12.1035 17.9956C12.6442 18.0489 13.1107 17.6135 13.1107 17.0745V15.3658C13.1107 14.8757 13.495 14.4545 13.9891 14.4421C14.0064 14.4416 14.0237 14.4416 14.041 14.4416C15.4926 14.4416 17.1182 16.5543 17.6869 17.5424C17.8504 17.8267 18.1561 18 18.4867 18H20.6962C21.3408 18 21.7545 17.3162 21.4439 16.7569Z" fill="#9c826f"/>
  </symbol>

  <symbol viewBox="0 0 24 24" fill="none" xmlns="http://www.w3.org/2000/svg" id="inst">
    <path d="M8.44444 4C5.99378 4 4 5.99378 4 8.44444V15.5556C4 18.0062 5.99378 20 8.44444 20H15.5556C18.0062 20 20 18.0062 20 15.5556V8.44444C20 5.99378 18.0062 4 15.5556 4H8.44444ZM8.44444 5.77778H15.5556C17.0258 5.77778 18.2222 6.97422 18.2222 8.44444V15.5556C18.2222 17.0258 17.0258 18.2222 15.5556 18.2222H8.44444C6.97422 18.2222 5.77778 17.0258 5.77778 15.5556V8.44444C5.77778 6.97422 6.97422 5.77778 8.44444 5.77778ZM16.4444 6.66667C16.2087 6.66667 15.9826 6.76032 15.8159 6.92702C15.6492 7.09372 15.5556 7.31981 15.5556 7.55556C15.5556 7.7913 15.6492 8.0174 15.8159 8.18409C15.9826 8.35079 16.2087 8.44444 16.4444 8.44444C16.6802 8.44444 16.9063 8.35079 17.073 8.18409C17.2397 8.0174 17.3333 7.7913 17.3333 7.55556C17.3333 7.31981 17.2397 7.09372 17.073 6.92702C16.9063 6.76032 16.6802 6.66667 16.4444 6.66667ZM12 7.55556C9.54933 7.55556 7.55556 9.54933 7.55556 12C7.55556 14.4507 9.54933 16.4444 12 16.4444C14.4507 16.4444 16.4444 14.4507 16.4444 12C16.4444 9.54933 14.4507 7.55556 12 7.55556ZM12 9.33333C13.4702 9.33333 14.6667 10.5298 14.6667 12C14.6667 13.4702 13.4702 14.6667 12 14.6667C10.5298 14.6667 9.33333 13.4702 9.33333 12C9.33333 10.5298 10.5298 9.33333 12 9.33333Z" fill="#9c826f"/>
  </symbol>

  <symbol viewBox="0 0 40 40" fill="none" xmlns="http://www.w3.org/2000/svg" id="prev-arrow">
    <path d="M0 20C0 31.0452 8.95481 40 20 40C31.0452 40 40 31.0452 40 20C40 8.95481 31.0452 0 20 0C8.95481 0 0 8.95481 0 20ZM21.5385 12.299L15.425 18.4615H29.8077V21.5385H15.425L21.5385 27.701L19.3558 29.8683L9.56346 20L19.3558 10.1317L21.5385 12.299Z" fill="#bf8762"/>
  </symbol>

  <symbol viewBox="0 0 40 40" fill="none" xmlns="http://www.w3.org/2000/svg" id="next-arrow">
    <path d="M40 20C40 8.95481 31.0452 0 20 0C8.95481 0 0 8.95481 0 20C0 31.0452 8.95481 40 20 40C31.0452 40 40 31.0452 40 20ZM18.4615 27.701L24.575 21.5385H10.1923V18.4615H24.575L18.4615 12.299L20.6442 10.1317L30.4365 20L20.6442 29.8683L18.4615 27.701Z" fill="#bf8762"/>
  </symbol>

  <symbol viewBox="0 0 120 120" fill="none" xmlns="http://www.w3.org/2000/svg" id="sun">
    <path d="M60.6929 9.61622L74.3393 0.295271C75.1942 -0.288698 76.3687 0.0259457 76.817 0.959309L83.9746 15.8548C84.2764 16.4827 84.932 16.8612 85.6265 16.8086L102.105 15.5595C103.138 15.4813 103.997 16.3409 103.919 17.3734L102.67 33.852C102.617 34.5465 102.996 35.2021 103.624 35.5039L118.519 42.6615C119.453 43.11 119.767 44.2843 119.183 45.1392L109.862 58.7856C109.469 59.3606 109.469 60.1179 109.862 60.6929L119.183 74.3393C119.767 75.1942 119.453 76.3687 118.519 76.817L103.624 83.9746C102.996 84.2764 102.617 84.932 102.67 85.6265L103.919 102.105C103.997 103.138 103.138 103.997 102.105 103.919L85.6265 102.67C84.932 102.617 84.2764 102.996 83.9746 103.624L76.817 118.519C76.3685 119.453 75.1942 119.767 74.3393 119.183L60.6929 109.862C60.1179 109.469 59.3606 109.469 58.7856 109.862L45.1392 119.183C44.2843 119.767 43.1098 119.453 42.6615 118.519L35.5038 103.624C35.2021 102.996 34.5465 102.617 33.852 102.67L17.3734 103.919C16.3409 103.997 15.4813 103.138 15.5595 102.105L16.8086 85.6265C16.8612 84.932 16.4827 84.2764 15.8548 83.9746L0.959074 76.817C0.0257108 76.3685 -0.288932 75.1942 0.295036 74.3393L9.61599 60.6929C10.0088 60.1179 10.0088 59.3606 9.61599 58.7856L0.295271 45.139C-0.288698 44.284 0.0259456 43.1095 0.959309 42.6613L15.8548 35.5036C16.4827 35.2019 16.8612 34.5463 16.8086 33.8517L15.5595 17.3731C15.4813 16.3407 16.3409 15.481 17.3734 15.5592L33.852 16.8084C34.5465 16.861 35.2021 16.4825 35.5038 15.8546L42.6615 0.959074C43.11 0.0257109 44.2843 -0.288932 45.1392 0.295036L58.7856 9.61599C59.3606 10.0091 60.1176 10.0091 60.6929 9.61622Z" fill="#FFC639"/>
    <path d="M59.7391 105.389C84.9511 105.389 105.389 84.9511 105.389 59.7391C105.389 34.5272 84.9511 14.0889 59.7391 14.0889C34.5272 14.0889 14.0889 34.5272 14.0889 59.7391C14.0889 84.9511 34.5272 105.389 59.7391 105.389Z" fill="#FFE564"/>
  </symbol>

  <symbol viewBox="0 0 120 120" fill="none" xmlns="http://www.w3.org/2000/svg" id="moon">
    <path d="M82.3641 0.0869446C88.7363 9.64521 92.5197 21.1948 92.5197 33.5409C92.7189 66.7956 65.438 93.6782 31.785 93.6782C20.4345 93.6782 9.68148 90.4922 0.521484 85.1156C10.8763 105.626 32.1832 119.565 56.8754 119.565C91.7232 119.565 120 91.6869 120 57.2374C120 31.7487 104.468 9.84434 82.3641 0.0869446Z" fill="#FFCE31"/>
  </symbol>

  <symbol viewBox="0 0 306 306" fill="none" xmlns="http://www.w3.org/2000/svg" id="close">
    <path d="M152.667 0C68.4871 0 0 68.4871 0 152.667C0 236.846 68.4871 305.333 152.667 305.333C236.846 305.333 305.333 236.846 305.333 152.667C305.333 68.4871 236.846 0 152.667 0ZM207.942 191.34C209.079 192.419 209.987 193.716 210.615 195.152C211.243 196.588 211.576 198.136 211.596 199.703C211.616 201.271 211.322 202.826 210.732 204.278C210.141 205.73 209.266 207.049 208.158 208.158C207.049 209.266 205.73 210.141 204.278 210.732C202.826 211.322 201.271 211.616 199.703 211.596C198.136 211.576 196.588 211.243 195.152 210.615C193.716 209.987 192.419 209.079 191.34 207.942L152.667 169.277L113.994 207.942C111.773 210.052 108.817 211.21 105.755 211.171C102.692 211.132 99.7665 209.898 97.6009 207.732C95.4354 205.567 94.2015 202.641 94.1623 199.579C94.1231 196.516 95.2817 193.56 97.3911 191.34L136.057 152.667L97.3911 113.994C95.2817 111.773 94.1231 108.817 94.1623 105.755C94.2015 102.692 95.4354 99.7665 97.6009 97.6009C99.7665 95.4354 102.692 94.2015 105.755 94.1623C108.817 94.1231 111.773 95.2817 113.994 97.3911L152.667 136.057L191.34 97.3911C193.56 95.2817 196.516 94.1231 199.579 94.1623C202.641 94.2015 205.567 95.4354 207.732 97.6009C209.898 99.7665 211.132 102.692 211.171 105.755C211.21 108.817 210.052 111.773 207.942 113.994L169.277 152.667L207.942 191.34Z" fill="#e9ac84"/>
  </symbol>


</svg>